<?xml version="1.0" encoding="UTF-8"?>
<svg xmlns="http://www.w3.org/2000/svg" viewBox="418 48 65 28" role="img" aria-label="Universidad Fidélitas">
  <style>.mark{fill:#ffffff;}</style>
  <path class="mark" d="M419.67,74.04c0,.55-.02,1.33.97,1.34.99.01,1-.77,1.01-1.31l.04-2.65h.43s-.04,2.93-.04,2.93c-.02,1.08-.68,1.36-1.44,1.35-.76-.01-1.41-.31-1.4-1.39l.05-2.92h.43s-.04,2.65-.04,2.65Z"/>
  <path class="mark" d="M426.81,75.67h-.4s.05-2.95.05-2.95h.4s0,.37,0,.37h.01c.2-.24.46-.41.83-.41.84.01.92.56.91.94l-.03,2.07h-.4s.03-2.06.03-2.06c0-.34-.14-.67-.61-.67-.36,0-.74.2-.75.86l-.03,1.85Z"/>
  <path class="mark" d="M433.01,75.69l.05-2.94h.4s-.05,2.95-.05,2.95h-.4ZM433.02,71.93v-.44s.5,0,.5,0v.44s-.5,0-.5,0Z"/>
  <polygon class="mark" points="438.77 75.25 438.79 75.25 439.65 72.77 440.04 72.77 438.99 75.7 438.53 75.69 437.56 72.74 438 72.74 438.77 75.25"/>
  <path class="mark" d="M444.3,74.23v.23c0,.41.11.95.75.96.5,0,.76-.27.76-.66h.42c-.06.72-.5.95-1.18.94-.58,0-1.17-.22-1.15-1.11v-.72c.02-.85.44-1.24,1.2-1.22,1.17.02,1.16.75,1.14,1.62l-1.93-.03ZM445.84,73.97c0-.65-.11-1.05-.75-1.05-.64,0-.77.38-.78,1.03l1.53.02Z"/>
  <path class="mark" d="M450.91,73.15h.01c.17-.28.53-.45.94-.44v.36c-.58-.05-.96.24-.96.74l-.03,1.89h-.4s.05-2.95.05-2.95h.4s0,.4,0,.4Z"/>
  <path class="mark" d="M456.7,75.7c-.73-.01-1.02-.32-1-.95h.41c0,.41.1.68.61.69.39,0,.58-.18.59-.51.01-.77-1.52-.59-1.5-1.57,0-.54.44-.73,1.03-.72.67,0,.88.41.87.86h-.4c-.01-.38-.13-.58-.58-.59-.29,0-.52.16-.52.42-.01.73,1.52.56,1.5,1.54,0,.55-.38.83-1.01.82"/>
  <path class="mark" d="M462.04,75.69l.05-2.94h.4s-.05,2.95-.05,2.95h-.4ZM462.05,71.93v-.44s.5,0,.5,0v.44s-.5,0-.5,0Z"/>
  <path class="mark" d="M468.68,75.28h-.01c-.21.28-.47.42-.87.42-.98-.01-1.02-.86-1.01-1.55,0-.57.02-1.53,1.06-1.51.31,0,.61.13.81.36h.01s.02-1.56.02-1.56h.4s-.06,3.63-.06,3.63c0,.29.01.48.03.58h-.39s-.01-.38-.01-.38ZM468.67,74.45v-.53c.01-.17.02-.99-.74-1-.72-.01-.73.56-.74,1.25-.02,1.1.28,1.25.72,1.25.38,0,.75-.26.76-.97"/>
  <path class="mark" d="M475.12,75.29h-.01c-.22.28-.55.41-.97.41-.61,0-.93-.37-.92-.88.02-1.03,1.21-.91,1.9-.95v-.24c.01-.43-.13-.7-.67-.7-.37,0-.67.15-.67.5h-.43c.04-.57.55-.79,1.14-.78.34,0,1.05.04,1.04.8l-.02,1.48c0,.21,0,.4.03.74h-.42s0-.37,0-.37ZM475.12,74.15c-.58,0-1.45-.06-1.46.65,0,.33.19.61.6.61.46,0,.84-.35.85-.73v-.54Z"/>
  <path class="mark" d="M481.63,75.28h-.01c-.21.28-.47.42-.87.42-.98-.01-1.02-.86-1.01-1.55,0-.57.02-1.53,1.06-1.51.31,0,.61.13.81.36h.01s.02-1.56.02-1.56h.4s-.06,3.63-.06,3.63c0,.29.01.48.03.58h-.39s-.01-.38-.01-.38ZM481.62,74.45v-.52c.01-.17.02-.99-.74-1-.73-.01-.73.56-.74,1.25-.02,1.1.28,1.25.72,1.25.38,0,.75-.26.76-.97"/>
  <path class="mark" d="M422.26,61.62v6.51c0,.33.03.55.09.67.06.12.2.2.42.24.22.04.62.07,1.19.1v.52s-4.72,0-4.72,0v-.52c.48-.04.8-.07.96-.11.16-.04.27-.12.31-.24.05-.12.07-.35.07-.68v-6.49h-1.37s0-.72,0-.72h1.37v-.62c0-1.24.2-2.16.59-2.75.23-.35.55-.62.95-.82.4-.2.84-.3,1.33-.3.67,0,1.2.14,1.59.41.39.27.59.57.59.9,0,.24-.09.44-.28.6-.19.16-.39.24-.59.24-.22,0-.39-.1-.48-.3-.21-.48-.41-.8-.6-.97-.19-.17-.4-.25-.62-.25s-.41.13-.59.38c-.18.25-.27.75-.27,1.5l.07,2h2.18s0,.72,0,.72h-2.18Z"/>
  <path class="mark" d="M425.39,61.13l2.8-.45.13.11v7.31c0,.33.02.55.07.67.05.12.15.2.32.25.16.04.48.08.95.11v.52s-4.36,0-4.36,0v-.52c.48-.03.8-.07.96-.11s.27-.12.31-.24c.05-.12.07-.35.07-.68v-5.63c0-.31-.04-.52-.11-.61-.07-.09-.23-.16-.46-.19l-.68-.09v-.45ZM427.46,56.88c.33,0,.59.1.79.31.2.21.3.47.3.8,0,.32-.11.58-.31.78-.2.2-.46.3-.78.3s-.58-.1-.78-.31c-.2-.2-.3-.46-.3-.77,0-.21.05-.4.14-.57.09-.17.22-.3.39-.4.17-.09.35-.14.56-.14"/>
  <path class="mark" d="M439.28,69.66h-2.89s-.14-.13-.14-.13v-.87c-.51.41-.98.72-1.42.91-.44.2-.89.3-1.35.3-.77,0-1.43-.18-2-.55-.57-.37-1-.88-1.29-1.55-.3-.67-.44-1.44-.44-2.31,0-1.5.41-2.68,1.24-3.54.79-.82,1.9-1.24,3.3-1.24.79,0,1.45.14,1.99.43v-2.93c0-.33-.03-.55-.1-.64-.07-.1-.23-.16-.47-.18l-.68-.07v-.45s2.81-.44,2.81-.44l.13.11v11.6c0,.33.02.55.07.67s.15.21.32.25c.16.04.48.08.95.11v.52ZM436.26,66.62v-3.15c0-.47-.05-.81-.16-1.04-.16-.37-.4-.65-.72-.84-.32-.19-.69-.29-1.12-.29-.88,0-1.55.35-1.99,1.06-.45.71-.67,1.66-.67,2.87,0,1.07.21,1.95.64,2.64.43.69,1.03,1.03,1.83,1.03,1.05,0,1.74-.43,2.07-1.29.08-.24.13-.57.13-1"/>
  <path class="mark" d="M455.45,56.51v11.6c0,.33.02.55.07.67.05.12.15.21.32.25.16.04.48.08.95.11v.52s-4.36,0-4.36,0v-.52c.48-.04.8-.07.96-.11.16-.04.27-.12.31-.24.05-.12.07-.35.07-.68v-9.92c0-.33-.04-.55-.11-.64-.07-.1-.23-.16-.46-.18l-.68-.07v-.45s2.81-.44,2.81-.44l.13.11Z"/>
  <path class="mark" d="M457,61.13l2.8-.45.13.11v7.31c0,.33.02.55.07.67.05.12.15.2.32.25.16.04.48.08.95.11v.52s-4.36,0-4.36,0v-.52c.48-.03.8-.07.96-.11.16-.04.27-.12.31-.24.05-.12.07-.35.07-.68v-5.63c0-.31-.04-.52-.11-.61-.07-.09-.23-.16-.46-.19l-.68-.09v-.45ZM459.07,56.88c.33,0,.59.1.79.31.2.21.3.47.3.8,0,.32-.11.58-.31.78-.2.2-.46.3-.78.3s-.58-.1-.78-.31c-.2-.2-.31-.46-.31-.77,0-.21.05-.4.14-.57.09-.17.22-.3.39-.4.16-.09.35-.14.56-.14"/>
  <path class="mark" d="M466.66,61.62h-2.3v5.54c0,1.19.39,1.79,1.18,1.79.48,0,.9-.08,1.27-.23l.14.38c-.84.52-1.6.79-2.29.79-.49,0-.94-.14-1.36-.42-.42-.28-.63-.82-.63-1.62v-6.22h-1.29s0-.72,0-.72h1.36s1.09-2.25,1.09-2.25h.52s0,2.25,0,2.25h2.3s0,.72,0,.72Z"/>
  <path class="mark" d="M474.01,63.07v4.33c0,.93.21,1.45.62,1.54.07.02.19.04.36.04.23,0,.41-.02.55-.05l.1.43c-.71.36-1.41.54-2.11.54-.29,0-.53-.09-.7-.26-.17-.17-.32-.45-.46-.81-.44.29-.88.54-1.3.75-.43.2-.88.31-1.36.33-.8,0-1.43-.25-1.88-.74-.46-.49-.69-1.09-.69-1.8,0-1.08.55-1.79,1.66-2.13.58-.18,1.12-.34,1.6-.49.49-.15.91-.3,1.26-.44.35-.14.6-.28.73-.42v-.75c0-.65-.15-1.11-.44-1.38-.3-.27-.65-.41-1.08-.41-.88,0-1.5.58-1.84,1.75-.05.17-.11.3-.19.38-.08.08-.2.12-.38.12-.21,0-.43-.08-.66-.23-.23-.15-.34-.36-.34-.61,0-.33.16-.65.49-.96.33-.32.76-.58,1.32-.77.56-.2,1.16-.3,1.8-.3,1.2,0,1.99.22,2.37.67.38.44.57,1.02.57,1.71M472.4,67.1v-2.52c-.23.15-.92.43-2.06.86-.51.19-.87.41-1.08.65-.21.24-.31.58-.31,1,0,.55.14.99.42,1.33.28.34.69.51,1.22.51.45,0,.87-.14,1.24-.43.38-.28.56-.75.56-1.4"/>
  <path class="mark" d="M481.46,63.39h-.52c-.07-.59-.27-1.09-.6-1.48-.33-.39-.8-.59-1.4-.59-.46,0-.84.13-1.15.38-.3.26-.46.61-.46,1.07,0,.43.18.77.53,1,.36.23.82.43,1.38.62.63.19,1.15.41,1.56.66.42.25.73.55.93.9.21.35.31.79.31,1.3s-.13.96-.39,1.36c-.26.4-.65.72-1.15.94-.5.23-1.1.34-1.8.34-.55,0-1.07-.07-1.57-.22-.5-.15-.9-.36-1.22-.63l-.18-2.34h.52c.4,1.72,1.27,2.58,2.61,2.58.48,0,.88-.14,1.19-.41.31-.27.47-.63.47-1.08,0-.54-.18-.95-.54-1.22-.36-.27-.82-.49-1.39-.66-.86-.26-1.52-.59-1.99-.98-.47-.39-.71-.93-.72-1.61,0-.83.31-1.48.89-1.93.59-.45,1.37-.68,2.36-.68.98,0,1.75.2,2.31.61v2.09Z"/>
  <path class="mark" d="M451.16,61.96h-8.65c0,.89.07,1.72.2,2.48.13.76.36,1.45.7,2.08.33.62.79,1.11,1.36,1.47.58.35,1.3.53,2.16.53.74,0,1.39-.13,1.94-.4.56-.27,1.02-.63,1.4-1.09.38-.45.72-.99,1.02-1.61l.9.47c-.29.81-.68,1.52-1.18,2.13-.5.61-1.14,1.1-1.92,1.45-.79.35-1.7.53-2.76.54-4.63,0-6.94-2.47-6.94-7.41,0-1.49.25-2.81.76-3.96.51-1.15,1.28-2.05,2.32-2.7,1.04-.65,2.32-.98,3.83-.98,1.66,0,2.95.34,3.85,1.02.9.68,1.5,1.46,1.79,2.33.29.88.43,1.72.43,2.53,0,.74-.4,1.12-1.2,1.12M442.54,60.85h5.68c.39,0,.66-.08.8-.24.14-.16.22-.39.22-.7,0-.93-.22-1.82-.65-2.66-.43-.84-1.26-1.27-2.48-1.27-.95,0-1.69.29-2.22.88-.53.59-.89,1.25-1.08,2-.19.75-.28,1.41-.28,1.98M445.3,53.79l-.45-.59,3.57-3.51c.8-.8,1.44-1.2,1.93-1.2.24,0,.49.14.76.42.27.28.41.56.41.84,0,.48-.56,1-1.68,1.58l-4.54,2.46Z"/>
</svg>
